<svg width="456" height="456" viewBox="0 0 456 456" fill="none" xmlns="http://www.w3.org/2000/svg">
	<rect width="456" height="456" fill="#15AB54"/>
	<path d="M331 279.475C331 283.864 328.585 287.675 324.905 289.639L234.055 340.921C232.215 342.307 229.915 343 227.5 343C225.085 343 222.785 342.307 220.945 340.921L130.095 289.639C126.415 287.675 124 283.864 124 279.475V175.525C124 171.136 126.415 167.324 130.095 165.361L220.945 114.079C222.785 112.693 225.085 112 227.5 112C229.915 112 232.215 112.693 234.055 114.079L324.905 165.361C328.585 167.324 331 171.136 331 175.525V279.475ZM227.5 136.832L205.765 149.191L273.5 188.345L296.04 175.525L227.5 136.832ZM158.96 175.525L227.5 214.217L250.04 201.512L182.42 162.242L158.96 175.525ZM147 272.66L216 311.7V234.199L147 195.275V272.66ZM308 272.66V195.275L239 234.199V311.7L308 272.66Z" fill="white"/>
</svg>
