<svg width="40" height="40" viewBox="0 0 40 40" fill="none" xmlns="http://www.w3.org/2000/svg">
<rect width="40" height="40" rx="9" fill="#111516"/>
<path d="M18.75 17.125C18.75 17.41 18.575 17.6575 18.3083 17.785L11.725 21.115C11.5917 21.205 11.425 21.25 11.25 21.25C11.075 21.25 10.9083 21.205 10.775 21.115L4.19167 17.785C3.925 17.6575 3.75 17.41 3.75 17.125V10.375C3.75 10.09 3.925 9.8425 4.19167 9.715L10.775 6.385C10.9083 6.295 11.075 6.25 11.25 6.25C11.425 6.25 11.5917 6.295 11.725 6.385L18.3083 9.715C18.575 9.8425 18.75 10.09 18.75 10.375V17.125ZM11.25 7.8625L9.675 8.665L14.5833 11.2075L16.2167 10.375L11.25 7.8625ZM6.28333 10.375L11.25 12.8875L12.8833 12.0625L7.98333 9.5125L6.28333 10.375ZM5.41667 16.6825L10.4167 19.2175V14.185L5.41667 11.6575V16.6825ZM17.0833 16.6825V11.6575L12.0833 14.185V19.2175L17.0833 16.6825Z" fill="white"/>
<path d="M27.5 30.875C27.5 31.16 27.325 31.4075 27.0583 31.535L20.475 34.865C20.3417 34.955 20.175 35 20 35C19.825 35 19.6583 34.955 19.525 34.865L12.9417 31.535C12.675 31.4075 12.5 31.16 12.5 30.875V24.125C12.5 23.84 12.675 23.5925 12.9417 23.465L19.525 20.135C19.6583 20.045 19.825 20 20 20C20.175 20 20.3417 20.045 20.475 20.135L27.0583 23.465C27.325 23.5925 27.5 23.84 27.5 24.125V30.875ZM20 21.6125L18.425 22.415L23.3333 24.9575L24.9667 24.125L20 21.6125ZM15.0333 24.125L20 26.6375L21.6333 25.8125L16.7333 23.2625L15.0333 24.125ZM14.1667 30.4325L19.1667 32.9675V27.935L14.1667 25.4075V30.4325ZM25.8333 30.4325V25.4075L20.8333 27.935V32.9675L25.8333 30.4325Z" fill="white"/>
<path d="M37.0835 17.125C37.0835 17.41 36.9085 17.6575 36.6418 17.785L30.0585 21.115C29.9252 21.205 29.7585 21.25 29.5835 21.25C29.4085 21.25 29.2418 21.205 29.1085 21.115L22.5252 17.785C22.2585 17.6575 22.0835 17.41 22.0835 17.125V10.375C22.0835 10.09 22.2585 9.8425 22.5252 9.715L29.1085 6.385C29.2418 6.295 29.4085 6.25 29.5835 6.25C29.7585 6.25 29.9252 6.295 30.0585 6.385L36.6418 9.715C36.9085 9.8425 37.0835 10.09 37.0835 10.375V17.125ZM29.5835 7.8625L28.0085 8.665L32.9168 11.2075L34.5502 10.375L29.5835 7.8625ZM24.6168 10.375L29.5835 12.8875L31.2168 12.0625L26.3168 9.5125L24.6168 10.375ZM23.7502 16.6825L28.7502 19.2175V14.185L23.7502 11.6575V16.6825ZM35.4168 16.6825V11.6575L30.4168 14.185V19.2175L35.4168 16.6825Z" fill="white"/>
</svg>
