<svg width="28" height="27" viewBox="0 0 28 27" fill="none" xmlns="http://www.w3.org/2000/svg">
	<path d="M19.4382 10.7182C19.4382 10.4795 19.5297 10.2506 19.6928 10.0818C19.8558 9.913 20.0769 9.81818 20.3074 9.81818H22.0458C22.2764 9.81818 22.4975 9.913 22.6605 10.0818C22.8235 10.2506 22.9151 10.4795 22.9151 10.7182V12.5182C22.9151 12.7569 22.8235 12.9858 22.6605 13.1546C22.4975 13.3234 22.2764 13.4182 22.0458 13.4182H20.3074C20.0769 13.4182 19.8558 13.3234 19.6928 13.1546C19.5297 12.9858 19.4382 12.7569 19.4382 12.5182V10.7182ZM14.2228 10.7182C14.2228 10.4795 14.3144 10.2506 14.4774 10.0818C14.6404 9.913 14.8615 9.81818 15.092 9.81818H16.8305C17.061 9.81818 17.2821 9.913 17.4451 10.0818C17.6081 10.2506 17.6997 10.4795 17.6997 10.7182V12.5182C17.6997 12.7569 17.6081 12.9858 17.4451 13.1546C17.2821 13.3234 17.061 13.4182 16.8305 13.4182H15.092C14.8615 13.4182 14.6404 13.3234 14.4774 13.1546C14.3144 12.9858 14.2228 12.7569 14.2228 12.5182V10.7182ZM5.53052 16.1182C5.53052 15.8795 5.6221 15.6506 5.78511 15.4818C5.94812 15.313 6.16921 15.2182 6.39975 15.2182H8.1382C8.36873 15.2182 8.58983 15.313 8.75284 15.4818C8.91585 15.6506 9.00743 15.8795 9.00743 16.1182V17.9182C9.00743 18.1569 8.91585 18.3858 8.75284 18.5546C8.58983 18.7234 8.36873 18.8182 8.1382 18.8182H6.39975C6.16921 18.8182 5.94812 18.7234 5.78511 18.5546C5.6221 18.3858 5.53052 18.1569 5.53052 17.9182V16.1182ZM10.7459 16.1182C10.7459 15.8795 10.8375 15.6506 11.0005 15.4818C11.1635 15.313 11.3846 15.2182 11.6151 15.2182H13.3536C13.5841 15.2182 13.8052 15.313 13.9682 15.4818C14.1312 15.6506 14.2228 15.8795 14.2228 16.1182V17.9182C14.2228 18.1569 14.1312 18.3858 13.9682 18.5546C13.8052 18.7234 13.5841 18.8182 13.3536 18.8182H11.6151C11.3846 18.8182 11.1635 18.7234 11.0005 18.5546C10.8375 18.3858 10.7459 18.1569 10.7459 17.9182V16.1182Z" fill="#BDBDBD"/>
	<path d="M6.53942 0C6.76583 0 6.98298 0.0888949 7.14308 0.247129C7.30318 0.405362 7.39312 0.619974 7.39312 0.84375V1.6875H21.0524V0.84375C21.0524 0.619974 21.1424 0.405362 21.3025 0.247129C21.4626 0.0888949 21.6797 0 21.9061 0C22.1325 0 22.3497 0.0888949 22.5098 0.247129C22.6699 0.405362 22.7598 0.619974 22.7598 0.84375V1.6875H24.4672C25.3729 1.6875 26.2415 2.04308 26.8819 2.67601C27.5223 3.30895 27.8821 4.16739 27.8821 5.0625V23.625C27.8821 24.5201 27.5223 25.3785 26.8819 26.0115C26.2415 26.6444 25.3729 27 24.4672 27H3.9783C3.07263 27 2.20406 26.6444 1.56366 26.0115C0.923252 25.3785 0.563477 24.5201 0.563477 23.625V5.0625C0.563477 4.16739 0.923252 3.30895 1.56366 2.67601C2.20406 2.04308 3.07263 1.6875 3.9783 1.6875H5.68571V0.84375C5.68571 0.619974 5.77566 0.405362 5.93576 0.247129C6.09586 0.0888949 6.313 0 6.53942 0ZM2.27089 6.75V23.625C2.27089 24.0726 2.45078 24.5018 2.77098 24.8182C3.09118 25.1347 3.52547 25.3125 3.9783 25.3125H24.4672C24.9201 25.3125 25.3544 25.1347 25.6746 24.8182C25.9948 24.5018 26.1747 24.0726 26.1747 23.625V6.75H2.27089Z" fill="#BDBDBD"/>
</svg>
