<svg width="35" height="25" viewBox="0 0 35 25" fill="none" xmlns="http://www.w3.org/2000/svg">
	<path d="M25 18.125C25 18.6 24.7083 19.0125 24.2639 19.225L13.2917 24.775C13.0694 24.925 12.7917 25 12.5 25C12.2083 25 11.9306 24.925 11.7083 24.775L0.736111 19.225C0.291668 19.0125 0 18.6 0 18.125V6.87505C0 6.40005 0.291668 5.98755 0.736111 5.77505L11.7083 0.225046C11.9306 0.0750459 12.2083 4.57764e-05 12.5 4.57764e-05C12.7917 4.57764e-05 13.0694 0.0750459 13.2917 0.225046L24.2639 5.77505C24.7083 5.98755 25 6.40005 25 6.87505V18.125ZM12.5 2.68755L9.875 4.02505L18.0556 8.26255L20.7778 6.87505L12.5 2.68755ZM4.22222 6.87505L12.5 11.0625L15.2222 9.68755L7.05556 5.43755L4.22222 6.87505ZM2.77778 17.3875L11.1111 21.6125V13.225L2.77778 9.01255V17.3875ZM22.2222 17.3875V9.01255L13.8889 13.225V21.6125L22.2222 17.3875Z" fill="white"/>
	<path d="M25 11H22V12H25V11Z" fill="#848C8E"/>
	<path d="M25 17H21V18H25V17Z" fill="#848C8E"/>
	<path d="M20 11.6301V17.3699H27.5758V22L35 14.5L27.5758 7.00005V11.6301H20Z" fill="white"/>
</svg>
