<svg width="42" height="31" viewBox="0 0 42 31" fill="none" xmlns="http://www.w3.org/2000/svg">
<path d="M0 2.58333C0 1.1566 1.1566 0 2.58333 0H39.4167C40.8434 0 42 1.1566 42 2.58333C42 4.01007 40.8434 5.16667 39.4167 5.16667H2.58333C1.1566 5.16667 0 4.01007 0 2.58333Z" fill="#848C8E"/>
<path d="M0 15.5C0 14.0733 1.1566 12.9167 2.58334 12.9167H39.4167C40.8434 12.9167 42 14.0733 42 15.5C42 16.9267 40.8434 18.0833 39.4167 18.0833H2.58334C1.1566 18.0833 0 16.9267 0 15.5Z" fill="#848C8E"/>
<path d="M0 28.4167C0 26.9899 1.1566 25.8333 2.58334 25.8333H39.4167C40.8434 25.8333 42 26.9899 42 28.4167C42 29.8434 40.8434 31 39.4167 31H2.58334C1.1566 31 0 29.8434 0 28.4167Z" fill="#848C8E"/>
</svg>
