<svg width="50" height="50" viewBox="0 0 50 50" fill="none" xmlns="http://www.w3.org/2000/svg">
	<path d="M43.75 23.1458V10.4166C43.75 8.12498 41.8958 6.24998 39.5833 6.24998H30.875C30 3.83331 27.7083 2.08331 25 2.08331C22.2917 2.08331 20 3.83331 19.125 6.24998H10.4167C8.125 6.24998 6.25 8.12498 6.25 10.4166V39.5833C6.25 41.8958 8.125 43.75 10.4167 43.75H23.1458C25.7708 46.3333 29.3542 47.9166 33.3333 47.9166C41.3958 47.9166 47.9167 41.3958 47.9167 33.3333C47.9167 29.3541 46.3333 25.7708 43.75 23.1458ZM25 6.24998C26.1458 6.24998 27.0833 7.18748 27.0833 8.33331C27.0833 9.47915 26.1458 10.4166 25 10.4166C23.8542 10.4166 22.9167 9.47915 22.9167 8.33331C22.9167 7.18748 23.8542 6.24998 25 6.24998ZM10.4167 39.5833V10.4166H14.5833V14.5833H35.4167V10.4166H39.5833V20.1666C37.6875 19.2708 35.5833 18.75 33.3333 18.75H14.5833V22.9166H23.125C21.875 24.1041 20.9167 25.5208 20.1667 27.0833H14.5833V31.25H18.9167C18.8125 31.9375 18.75 32.625 18.75 33.3333C18.75 35.5833 19.2708 37.6875 20.1667 39.5833H10.4167ZM33.3333 43.75C27.5833 43.75 22.9167 39.0833 22.9167 33.3333C22.9167 27.5833 27.5833 22.9166 33.3333 22.9166C39.0833 22.9166 43.75 27.5833 43.75 33.3333C43.75 39.0833 39.0833 43.75 33.3333 43.75ZM34.375 33.8541L40.3333 37.375L38.7708 39.9166L31.25 35.4166V25H34.375V33.8541Z" fill="white"/>
</svg>
