<svg width="37" height="37" viewBox="0 0 37 37" fill="none" xmlns="http://www.w3.org/2000/svg">
	<path d="M23.125 29.2917L13.875 26.0387V7.70833L23.125 10.9612M31.6042 4.625C31.5117 4.625 31.4346 4.625 31.3575 4.625L23.125 7.8625L13.875 4.625L5.18 7.55417C4.85625 7.66208 4.625 7.93958 4.625 8.29417V31.6042C4.625 31.8086 4.70621 32.0047 4.85077 32.1492C4.99533 32.2938 5.1914 32.375 5.39583 32.375C5.47292 32.375 5.56542 32.375 5.6425 32.3287L13.875 29.1375L23.125 32.375L31.82 29.4458C32.1437 29.2917 32.375 29.0604 32.375 28.7058V5.39583C32.375 5.1914 32.2938 4.99533 32.1492 4.85077C32.0047 4.70621 31.8086 4.625 31.6042 4.625Z" fill="white"/>
</svg>
