<svg width="32" height="32" viewBox="0 0 32 32" fill="none" xmlns="http://www.w3.org/2000/svg">
	<path d="M28.6667 0.166626C29.5066 0.166626 30.3121 0.500256 30.9059 1.09412C31.4998 1.68799 31.8334 2.49344 31.8334 3.33329V22.3333C31.8334 23.1731 31.4998 23.9786 30.9059 24.5725C30.3121 25.1663 29.5066 25.5 28.6667 25.5H6.50008L0.166748 31.8333V3.33329C0.166748 1.57579 1.59175 0.166626 3.33341 0.166626H28.6667ZM3.33341 3.33329V24.1858L5.18591 22.3333H28.6667V3.33329H3.33341ZM6.50008 8.08329H25.5001V11.25H6.50008V8.08329ZM6.50008 14.4166H20.7501V17.5833H6.50008V14.4166Z" fill="white"/>
</svg>
