<svg width="50" height="50" viewBox="0 0 50 50" fill="none" xmlns="http://www.w3.org/2000/svg">
	<path d="M43.5 34.2083C43.5 35 43.0625 35.6875 42.3958 36.0417L25.9375 45.2917C25.6042 45.5417 25.1875 45.6667 24.75 45.6667C24.3125 45.6667 23.8958 45.5417 23.5625 45.2917L7.10417 36.0417C6.4375 35.6875 6 35 6 34.2083V15.4583C6 14.6667 6.4375 13.9792 7.10417 13.625L23.5625 4.375C23.8958 4.125 24.3125 4 24.75 4C25.1875 4 25.6042 4.125 25.9375 4.375L42.3958 13.625C43.0625 13.9792 43.5 14.6667 43.5 15.4583V34.2083ZM24.75 8.47917L20.8125 10.7083L33.0833 17.7708L37.1667 15.4583L24.75 8.47917ZM12.3333 15.4583L24.75 22.4375L28.8333 20.1458L16.5833 13.0625L12.3333 15.4583ZM10.1667 32.9792L22.6667 40.0208V26.0417L10.1667 19.0208V32.9792ZM39.3333 32.9792V19.0208L26.8333 26.0417V40.0208L39.3333 32.9792Z" fill="white"/>
</svg>
