<svg width="30" height="30" viewBox="0 0 30 30" fill="none" xmlns="http://www.w3.org/2000/svg">
	<path d="M6.48167 13.0842C8.76167 17.565 12.435 21.2383 16.9158 23.5183L20.3992 20.035C20.8425 19.5917 21.46 19.465 22.0142 19.6392C23.7875 20.225 25.6875 20.5417 27.6667 20.5417C28.0866 20.5417 28.4893 20.7085 28.7863 21.0054C29.0832 21.3023 29.25 21.7051 29.25 22.125V27.6667C29.25 28.0866 29.0832 28.4893 28.7863 28.7863C28.4893 29.0832 28.0866 29.25 27.6667 29.25C20.5279 29.25 13.6816 26.4141 8.63371 21.3663C3.58585 16.3184 0.75 9.47208 0.75 2.33333C0.75 1.91341 0.916815 1.51068 1.21375 1.21375C1.51068 0.916815 1.91341 0.75 2.33333 0.75H7.875C8.29493 0.75 8.69765 0.916815 8.99459 1.21375C9.29152 1.51068 9.45833 1.91341 9.45833 2.33333C9.45833 4.3125 9.775 6.2125 10.3608 7.98583C10.535 8.54 10.4083 9.1575 9.965 9.60083L6.48167 13.0842Z" fill="white"/>
</svg>
