<svg width="35" height="25" viewBox="0 0 35 25" fill="none" xmlns="http://www.w3.org/2000/svg">
<path d="M35 18.125C35 18.6 34.7083 19.0125 34.2639 19.225L23.2917 24.775C23.0694 24.925 22.7917 25 22.5 25C22.2083 25 21.9306 24.925 21.7083 24.775L10.7361 19.225C10.2917 19.0125 10 18.6 10 18.125V6.875C10 6.4 10.2917 5.9875 10.7361 5.775L21.7083 0.225C21.9306 0.0750001 22.2083 0 22.5 0C22.7917 0 23.0694 0.0750001 23.2917 0.225L34.2639 5.775C34.7083 5.9875 35 6.4 35 6.875V18.125ZM22.5 2.6875L19.875 4.025L28.0556 8.2625L30.7778 6.875L22.5 2.6875ZM14.2222 6.875L22.5 11.0625L25.2222 9.6875L17.0556 5.4375L14.2222 6.875ZM12.7778 17.3875L21.1111 21.6125V13.225L12.7778 9.0125V17.3875ZM32.2222 17.3875V9.0125L23.8889 13.225V21.6125L32.2222 17.3875Z" fill="white"/>
<path d="M10 11H13V12H10V11Z" fill="#848C8E"/>
<path d="M10 17H14V18H10V17Z" fill="#848C8E"/>
<path d="M15 11.6301V17.3699H7.42424V22L0 14.5L7.42424 7V11.6301H15Z" fill="white"/>
</svg>
