<svg width="40" height="40" viewBox="0 0 40 40" fill="none" xmlns="http://www.w3.org/2000/svg">
<rect width="40" height="40" rx="9" fill="#848C8E"/>
<path d="M37 26.125C37 26.6 36.7083 27.0125 36.2639 27.225L25.2917 32.775C25.0694 32.925 24.7917 33 24.5 33C24.2083 33 23.9306 32.925 23.7083 32.775L12.7361 27.225C12.2917 27.0125 12 26.6 12 26.125V14.875C12 14.4 12.2917 13.9875 12.7361 13.775L23.7083 8.225C23.9306 8.075 24.2083 8 24.5 8C24.7917 8 25.0694 8.075 25.2917 8.225L36.2639 13.775C36.7083 13.9875 37 14.4 37 14.875V26.125ZM24.5 10.6875L21.875 12.025L30.0556 16.2625L32.7778 14.875L24.5 10.6875ZM16.2222 14.875L24.5 19.0625L27.2222 17.6875L19.0556 13.4375L16.2222 14.875ZM14.7778 25.3875L23.1111 29.6125V21.225L14.7778 17.0125V25.3875ZM34.2222 25.3875V17.0125L25.8889 21.225V29.6125L34.2222 25.3875Z" fill="white"/>
<path d="M12 19H15V20H12V19Z" fill="#848C8E"/>
<path d="M12 25H16V26H12V25Z" fill="#848C8E"/>
<path d="M17 19.6301V25.3699H9.42424V30L2 22.5L9.42424 15V19.6301H17Z" fill="white"/>
</svg>
