<svg width="40" height="40" viewBox="0 0 40 40" fill="none" xmlns="http://www.w3.org/2000/svg">
<rect width="40" height="40" rx="9" fill="#15AB54"/>
<path d="M29 26.125C29 26.6 28.7083 27.0125 28.2639 27.225L17.2917 32.775C17.0694 32.925 16.7917 33 16.5 33C16.2083 33 15.9306 32.925 15.7083 32.775L4.73611 27.225C4.29167 27.0125 4 26.6 4 26.125V14.875C4 14.4 4.29167 13.9875 4.73611 13.775L15.7083 8.225C15.9306 8.075 16.2083 8 16.5 8C16.7917 8 17.0694 8.075 17.2917 8.225L28.2639 13.775C28.7083 13.9875 29 14.4 29 14.875V26.125ZM16.5 10.6875L13.875 12.025L22.0556 16.2625L24.7778 14.875L16.5 10.6875ZM8.22222 14.875L16.5 19.0625L19.2222 17.6875L11.0556 13.4375L8.22222 14.875ZM6.77778 25.3875L15.1111 29.6125V21.225L6.77778 17.0125V25.3875ZM26.2222 25.3875V17.0125L17.8889 21.225V29.6125L26.2222 25.3875Z" fill="white"/>
<path d="M29 19H26V20H29V19Z" fill="#848C8E"/>
<path d="M29 25H25V26H29V25Z" fill="#848C8E"/>
<path d="M24 19.6301V25.3699H31.5758V30L39 22.5L31.5758 15V19.6301H24Z" fill="white"/>
</svg>
